<?xml version="1.0" encoding="utf-8"?>
<!-- Generator: Adobe Illustrator 26.1.0, SVG Export Plug-In . SVG Version: 6.00 Build 0)  -->
<svg version="1.1" id="Layer_1" xmlns="http://www.w3.org/2000/svg" xmlns:xlink="http://www.w3.org/1999/xlink" x="0px" y="0px"
	 viewBox="0 0 295.3 71.6" style="enable-background:new 0 0 295.3 71.6;" xml:space="preserve">
<style type="text/css">
	.st0{fill:#FFBA00;}
	.st1{fill:#4739E7;}
</style>
<g>
	<path d="M85.1,45.9c0-14.7,10.8-25.6,26.2-25.6c12.2,0,21.5,6.9,24.6,17.1c0.2,0.7-0.2,1.5-0.9,1.7c-0.1,0-0.3,0.1-0.4,0.1h-6.8
		c-0.5,0-1-0.3-1.2-0.8c-2.5-5.7-8.1-9.4-15.3-9.4c-10,0-16.7,7.1-16.7,16.9s6.7,16.9,16.7,16.9c7.2,0,12.8-3.7,15.3-9.4
		c0.2-0.5,0.7-0.8,1.2-0.8h6.8c0.8,0,1.4,0.6,1.4,1.4c0,0.1,0,0.3-0.1,0.4c-3.1,10.2-12.4,17.1-24.6,17.1
		C95.9,71.5,85.1,60.7,85.1,45.9z"/>
	<path d="M142.3,0.4h6.6c0.7,0,1.4,0.6,1.4,1.3v67.1c0,0.8-0.6,1.4-1.4,1.4h-6.6c-0.7,0-1.3-0.6-1.3-1.4v-67
		C141,1,141.6,0.4,142.3,0.4z"/>
	<path d="M155.3,46.3c0-15.2,10.8-26,26.2-26c15.2,0,25.9,10.4,25.9,26v22.5c0,0.7-0.6,1.4-1.3,1.4h-5.8c-0.8,0-1.4-0.6-1.4-1.4
		v-9.3c-3.2,7.9-10.4,11.9-18.8,11.9C167.3,71.5,155.3,62.4,155.3,46.3L155.3,46.3z M198.1,45.9c0-9.8-6.7-16.9-16.7-16.9
		s-16.7,7.1-16.7,16.9s6.7,16.9,16.7,16.9S198.1,55.8,198.1,45.9z"/>
	<path d="M212.7,56.2h6.8c0.6,0,1.2,0.4,1.3,1.1c0.8,3.5,4.4,5.8,10.6,5.8c7.1,0,10.7-3.1,10.7-6.9c0-4.6-5.1-5.2-11.2-6
		c-8.4-1.1-18.7-2.7-18.7-13.8c0-9.5,7.5-16,19.1-16c10.9,0,17.9,5.8,18.9,13.4c0.1,0.7-0.4,1.4-1.2,1.5c-0.1,0-0.1,0-0.2,0h-6.6
		c-0.6,0-1.1-0.4-1.3-1c-0.8-3.2-4.1-5.4-9.5-5.4c-6.2,0-9.7,2.9-9.7,6.8c0,4.6,5.1,5.1,11.1,5.9c8.4,1.1,18.8,2.7,18.8,13.8
		c0,9.8-8,16.2-20.2,16.2c-11.5,0-18.9-5.7-20-13.8c-0.1-0.7,0.3-1.4,1.1-1.6L212.7,56.2z"/>
	<path d="M256.4,56.2h6.8c0.6,0,1.2,0.4,1.3,1.1c0.8,3.5,4.4,5.8,10.6,5.8c7.1,0,10.7-3.1,10.7-6.9c0-4.6-5.1-5.2-11.2-6
		c-8.5-1.1-18.7-2.7-18.7-13.8c0-9.5,7.5-16,19.1-16c10.9,0,17.9,5.8,18.9,13.4c0.1,0.7-0.4,1.4-1.2,1.5c-0.1,0-0.1,0-0.2,0h-6.6
		c-0.6,0-1.1-0.4-1.3-1c-0.8-3.2-4.1-5.4-9.5-5.4c-6.2,0-9.7,2.9-9.7,6.8c0,4.6,5.1,5.1,11.1,5.9c8.5,1.1,18.8,2.7,18.8,13.8
		c0,9.8-8,16.2-20.1,16.2c-11.5,0-18.9-5.7-20-13.8c-0.1-0.7,0.3-1.4,1.1-1.6C256.2,56.2,256.3,56.2,256.4,56.2L256.4,56.2z"/>
	<path class="st0" d="M38.5,43.5H5c-2.8,0-5-2.2-5-5V5c0-2.8,2.2-5,5-5h33.5c2.8,0,5,2.2,5,5v33.5C43.5,41.3,41.3,43.5,38.5,43.5z"
		/>
	<g>
		<path class="st1" d="M66.5,43.2H53.9c-2.8,0-5-2.2-5-5V25.7c0-2.8,2.2-5,5-5h12.5c2.8,0,5,2.2,5,5v12.5
			C71.5,41,69.2,43.2,66.5,43.2z"/>
		<path class="st1" d="M66.4,71.3H53.8c-2.8,0-5-2.2-5-5V53.9c0-2.8,2.2-5,5-5h12.5c2.8,0,5,2.2,5,5v12.5
			C71.4,69.1,69.1,71.4,66.4,71.3z"/>
		<path class="st1" d="M38.7,71.2H26.2c-2.8,0-5-2.2-5-5V53.7c0-2.8,2.2-5,5-5h12.5c2.8,0,5,2.2,5,5v12.5
			C43.7,69,41.4,71.2,38.7,71.2z"/>
	</g>
</g>
</svg>
